<?xml version="1.0" standalone="no"?>
<!DOCTYPE svg PUBLIC "-//W3C//DTD SVG 20010904//EN"
 "http://www.w3.org/TR/2001/REC-SVG-20010904/DTD/svg10.dtd">
<svg version="1.0" xmlns="http://www.w3.org/2000/svg"
 width="260.000000pt" height="260.000000pt" viewBox="0 0 260.000000 260.000000"
 preserveAspectRatio="xMidYMid meet">
<metadata>
Created by potrace 1.14, written by Peter Selinger 2001-2017
</metadata>
<g transform="translate(0.000000,260.000000) scale(0.100000,-0.100000)"
fill="#000000" stroke="none">
<path d="M0 1300 l0 -1300 1300 0 1300 0 0 1300 0 1300 -1300 0 -1300 0 0
-1300z m986 546 c81 -29 144 -82 179 -151 27 -54 30 -69 30 -155 -1 -78 -5
-103 -22 -136 -32 -60 -69 -101 -119 -130 -24 -14 -44 -29 -44 -33 0 -4 49
-100 110 -213 60 -114 113 -213 116 -222 5 -14 -7 -16 -103 -16 l-109 0 -104
203 -105 202 -97 3 -98 3 0 -206 0 -205 -105 0 -105 0 0 541 0 541 263 -4
c219 -4 270 -7 313 -22z m1184 -56 l0 -80 -170 0 -170 0 0 -460 0 -460 -95 0
-95 0 0 460 0 460 -170 0 -170 0 0 80 0 80 435 0 435 0 0 -80z"/>
<path d="M620 1536 l0 -176 122 0 c143 0 192 17 230 78 32 51 31 143 -1 196
-37 60 -68 70 -218 74 l-133 4 0 -176z"/>
</g>
</svg>
