<svg width="228" height="76" viewBox="0 0 228 76" fill="none" xmlns="http://www.w3.org/2000/svg">
<path d="M163.147 57.76V0H173.28V57.76H163.147Z" fill="#F7A600"/>
<path d="M25.248 75.9956H0V18.24H24.2327C36.01 18.24 42.8723 24.567 42.8723 34.464C42.8723 40.8703 38.4651 45.0103 35.4146 46.3888C39.0558 48.0103 43.7167 51.6598 43.7167 59.3697C43.7167 70.1548 36.01 75.9956 25.248 75.9956ZM23.3006 28.3004H11.7772V41.6037H23.3006C28.2986 41.6037 31.0951 38.9264 31.0951 34.9499C31.0951 30.9778 28.2986 28.3004 23.3006 28.3004ZM24.062 51.7437H11.7772V65.9396H24.062C29.4014 65.9396 31.9395 62.6967 31.9395 58.7998C31.9395 54.9073 29.3967 51.7437 24.062 51.7437Z" fill="white"/>
<path d="M79.6384 52.3092V75.9956H67.9443V52.3092L49.8125 18.24H62.6049L73.8744 41.5198L84.9734 18.24H97.7658L79.6384 52.3092Z" fill="white"/>
<path d="M131.155 75.9956H105.907V18.24H130.14C141.917 18.24 148.779 24.567 148.779 34.464C148.779 40.8703 144.372 45.0103 141.321 46.3888C144.963 48.0103 149.624 51.6598 149.624 59.3697C149.624 70.1548 141.917 75.9956 131.155 75.9956ZM129.207 28.3004H117.684V41.6037H129.207C134.205 41.6037 137.002 38.9264 137.002 34.9499C137.002 30.9778 134.205 28.3004 129.207 28.3004ZM129.969 51.7437H117.684V65.9396H129.969C135.308 65.9396 137.846 62.6967 137.846 58.7998C137.846 54.9073 135.308 51.7437 129.969 51.7437Z" fill="white"/>
<path d="M212.24 28.3004V76H200.463V28.3004H184.703V18.24H228V28.3004H212.24Z" fill="white"/>
</svg>
