<svg width="199" height="22" viewBox="0 0 199 22" fill="none" xmlns="http://www.w3.org/2000/svg">
<path d="M100.426 0.0450269C102.169 0.254196 103.837 0.868293 105.293 1.83683C106.749 2.80537 107.95 4.10069 108.799 5.61632C109.649 7.13196 110.121 8.82463 110.177 10.5552C110.233 12.2858 109.872 14.0048 109.124 15.571C108.929 13.3279 108.318 10.876 106.84 8.87026C105.43 6.9772 103.36 5.66506 101.028 5.18626C99.7502 4.7575 98.3645 4.75833 97.0875 5.18865C95.8104 5.61896 94.7141 6.45447 93.9699 7.56449C94.0851 6.95527 94.2733 6.36167 94.5304 5.79616C95.7178 3.15596 98.2296 1.27712 100.426 0.0450269ZM105.823 9.5866C105.453 9.08253 105.024 8.62358 104.544 8.21942C105.149 9.40131 105.34 10.7473 105.088 12.0475C104.836 13.3477 104.154 14.529 103.149 15.4073C101.559 17.178 99.3595 18.304 96.9757 18.5674C96.6227 18.6035 96.2679 18.6212 95.9129 18.6206C93.8421 18.569 91.8077 18.0731 89.951 17.1675C90.9524 18.5893 92.2817 19.7564 93.8298 20.573C95.3778 21.3896 97.1003 21.8323 98.8556 21.8646C100.611 21.897 102.349 21.5181 103.927 20.7592C105.505 20.0003 106.878 18.8829 107.932 17.499C107.957 15.0266 107.546 11.9157 105.827 9.5866H105.823ZM96.8512 17.3639C97.48 17.3005 98.0989 17.1631 98.6946 16.9546C97.3405 16.8725 96.0523 16.3497 95.032 15.4682C94.0116 14.5867 93.3168 13.3962 93.0565 12.0835C92.3193 9.86599 92.4376 7.45827 93.3887 5.32133C94.4141 3.05363 96.2575 1.30987 98.1341 0C96.3848 0.146259 94.6956 0.698977 93.2048 1.61288C91.714 2.52678 90.4639 3.77588 89.557 5.25786C88.6501 6.73984 88.1122 8.41255 87.9873 10.139C87.8624 11.8654 88.154 13.5965 88.8384 15.1904C91.0263 16.4511 93.9491 17.6464 96.8553 17.3435L96.8512 17.3639Z" fill="#00D7B0"/>
<path d="M0 10.9333C0 4.79329 4.45479 0.290619 10.5827 0.290619C15.8429 0.290619 19.9116 3.49979 20.962 8.45273H16.2623C15.4568 6.12362 13.3312 4.65002 10.6741 4.65002C7.17416 4.65002 4.66238 7.27385 4.66238 10.9292C4.66238 14.5845 7.1534 17.2084 10.6741 17.2084C11.9349 17.2418 13.1723 16.868 14.1976 16.1438C15.223 15.4196 15.9801 14.3847 16.3536 13.1969H20.9869C20.0279 18.2685 15.9052 21.5678 10.5827 21.5678C4.45479 21.5514 0 17.0733 0 10.9333ZM22.8054 0.618087H30.5483C35.1858 0.618087 37.9342 3.41793 37.9342 7.3066C37.9342 10.3439 36.2735 12.7303 33.2386 13.5858L38.7729 20.7491V21.2485H33.5998L27.3723 12.939V21.2485H22.8054V0.618087ZM30.3989 10.3439C32.2256 10.3439 33.33 9.36963 33.33 7.62997C33.33 5.8903 32.1965 4.92018 30.3698 4.92018H27.3515V10.3439H30.3989ZM44.2822 12.6238L37.1246 1.10929V0.609899H42.1067L44.469 4.58862L46.5449 8.18257L48.6207 4.58862L50.9498 0.609899H55.9734V1.17068L48.7993 12.632V21.228H44.2822V12.6238ZM57.0487 0.597619H65.0574C69.425 0.597619 72.2938 3.48342 72.2938 7.84692C72.2938 12.2104 69.425 15.0676 65.0574 15.0676H61.5907V21.2076H57.0653L57.0487 0.597619ZM64.5965 10.9333C66.5395 10.9333 67.6771 9.75441 67.6771 7.89604C67.6771 6.03766 66.5395 4.86287 64.5965 4.86287H61.6073V10.9333H64.5965ZM77.9858 4.79329H72.4557V0.597619H88.0911V4.79329H82.5278V21.2117H77.9858V4.79329ZM111.54 0.597619H115.069L121.944 10.4707L128.761 0.597619H132.228V21.228H127.732V9.0831L123.123 15.5997H120.732L116.099 9.05035V21.2239H111.54V0.597619ZM133.718 20.7286L141.64 0.597619H145.435L153.36 20.7286V21.228H148.619L147.274 17.5154H139.801L138.456 21.228H133.731L133.718 20.7286ZM145.999 13.684L143.508 7.02006L141.055 13.684H145.999ZM155.963 4.79329H150.417V0.597619H166.052V4.79329H160.493V21.2117H155.963V4.79329ZM167.048 17.1142H170.337V4.63365H167.082V0.597619H178.113V4.63365H174.883V17.1306H178.171V21.2239H167.032L167.048 17.1142ZM178.013 10.9333C178.013 4.79329 182.468 0.290619 188.596 0.290619C193.86 0.290619 197.925 3.49979 198.975 8.45273H194.275C193.47 6.12362 191.369 4.65002 188.687 4.65002C185.187 4.65002 182.68 7.27385 182.68 10.9292C182.68 14.5845 185.171 17.2084 188.687 17.2084C189.948 17.2425 191.186 16.8689 192.211 16.1446C193.237 15.4203 193.994 14.3851 194.367 13.1969H199C198.045 18.2685 193.918 21.5678 188.596 21.5678C182.468 21.5514 178.013 17.0733 178.013 10.9333Z" fill="white"/>
</svg>
