<svg aria-hidden="true" style="width: 0px; height: 0px; overflow: hidden; position: absolute;" xmlns="http://www.w3.org/2000/svg">
  <symbol id="tg" viewBox="0 0 24 24">
    <path d="M23.4,4.1L20,20.5c-0.3,1.1-1,1.4-2,0.9l-5.3-3.9l-2.5,2.5c-0.3,0.3-0.5,0.5-1.1,0.5L9.5,15l9.8-8.8c0.5-0.4-0.1-0.6-0.7-0.2L6.5,13.6L1.3,12c-1.1-0.4-1.2-1.1,0.2-1.7L22,2.5C22.9,2.1,23.7,2.7,23.4,4.1z"/>
  </symbol>
  <symbol id="envelope" viewBox="0 0 512 512">
    <path d="M0 128C0 92.65 28.65 64 64 64H448C483.3 64 512 92.65 512 128V384C512 419.3 483.3 448 448 448H64C28.65 448 0 419.3 0 384V128zM32 128V167.9L227.6 311.3C244.5 323.7 267.5 323.7 284.4 311.3L480 167.9V128C480 110.3 465.7 96 448 96H63.1C46.33 96 31.1 110.3 31.1 128H32zM32 207.6V384C32 401.7 46.33 416 64 416H448C465.7 416 480 401.7 480 384V207.6L303.3 337.1C275.1 357.8 236.9 357.8 208.7 337.1L32 207.6z"/>
  </symbol>
</svg>
